HIERARCHY
ROOT ui
{
	 OFFSET 0 0 0
	 CHANNELS 3 XPosition YPosition Z Position
	 EndSite
	 {
	 OFFSET 0 -1 0
	 }
}
ROOT li
{
	 OFFSET 0 0 0
	 CHANNELS 3 XPosition YPosition Z Position
	 EndSite
	 {
	 OFFSET 0 -1 0
	 }
}
ROOT ul
{
	 OFFSET 0 0 0
	 CHANNELS 3 XPosition YPosition Z Position
	 EndSite
	 {
	 OFFSET 0 -1 0
	 }
}
ROOT ll
{
	 OFFSET 0 0 0
	 CHANNELS 3 XPosition YPosition Z Position
	 EndSite
	 {
	 OFFSET 0 -1 0
	 }
}
ROOT tt
{
	 OFFSET 0 0 0
	 CHANNELS 3 XPosition YPosition Z Position
	 EndSite
	 {
	 OFFSET 0 -1 0
	 }
}
ROOT tb
{
	 OFFSET 0 0 0
	 CHANNELS 3 XPosition YPosition Z Position
	 EndSite
	 {
	 OFFSET 0 -1 0
	 }
}
ROOT td
{
	 OFFSET 0 0 0
	 CHANNELS 3 XPosition YPosition Z Position
	 EndSite
	 {
	 OFFSET 0 -1 0
	 }
}
ROOT v
{
	 OFFSET 0 0 0
	 CHANNELS 3 XPosition YPosition Z Position
	 EndSite
	 {
	 OFFSET 0 -1 0
	 }
}
ROOT bn
{
	 OFFSET 0 0 0
	 CHANNELS 3 XPosition YPosition Z Position
	 EndSite
	 {
	 OFFSET 0 -1 0
	 }
}
MOTION
Frames: 29
Frame Time: 0.002
0.002461777925491333	0.0010884230136871337	0		0.5143704223632812	-2.403877685546875	0		-0.814183837890625	0.23038935852050782	0		-0.5516444091796875	-2.396853759765625	0		1.8500968017578125	-0.369725341796875	0		3.486678466796875	-0.3433218994140625	0		4.72994482421875	-0.46802359008789063	0		5.74539794921875	0.21979078674316407	0		-0.10793059539794922	5.96342138671875	0		
-5.507599711418151E-4	-0.0017942479848861695	0		0.4605433044433594	-2.3979833984375	0		-0.8773003540039063	0.2213876190185547	0		-0.5854739379882813	-2.391285888671875	0		1.8797296142578126	-0.39705471801757813	0		3.474810546875	-0.33698416137695314	0		4.7358525390625	-0.4769234619140625	0		5.7502890625	0.21093109130859375	0		-0.1070613555908203	5.9624755859375	0		
0.0025497300624847414	0.0012066930532455445	0		0.46268057250976563	-2.395957275390625	0		-0.87218994140625	0.22533958435058593	0		-0.5772326049804688	-2.382373046875	0		1.8899876708984376	-0.3841192932128906	0		3.51200439453125	-0.32841848754882813	0		4.74896240234375	-0.4739702758789063	0		5.7644287109375	0.2168908233642578	0		-0.10617910766601563	5.9595048828125	0		
0.007568871974945069	-0.0028451809883117676	0		0.4668789978027344	-2.39098681640625	0		-0.872114501953125	0.22534585571289062	0		-0.53608349609375	-2.38097509765625	0		1.8865836181640625	-0.35000570678710935	0		3.50131591796875	-0.31316790771484376	0		4.7610791015625	-0.47203952026367185	0		5.7545205078125	0.21816976928710938	0		0.025164379119873046	5.98356201171875	0		
-3.125160038471222E-4	-0.0017248200178146362	0		0.5148341674804687	-2.403695068359375	0		-0.8230506591796874	0.22260067749023438	0		-0.5567021484375	-2.364670654296875	0		1.866708984375	-0.3486766662597656	0		3.49734912109375	-0.3180522766113281	0		4.761189453125	-0.47196466064453124	0		5.7497548828125	0.2273338623046875	0		-0.12231795501708985	5.9517646484375	0		
-1.8810300529003145E-4	-0.0017433559894561767	0		0.48802093505859373	-2.40130419921875	0		-0.81700439453125	0.21748297119140625	0		-0.587186767578125	-2.340235595703125	0		1.9133543701171876	-0.381370849609375	0		3.516550048828125	-0.31331231689453126	0		4.76922900390625	-0.47804364013671874	0		5.74577197265625	0.2204463806152344	0		-0.12325151062011719	5.95275927734375	0		
-4.3962001800537106E-5	-0.0017782880067825318	0		0.5151526489257813	-2.40373779296875	0		-0.8849142456054687	0.2144567565917969	0		-0.5903060302734375	-2.359228515625	0		1.9006375732421874	-0.3721964111328125	0		3.51669677734375	-0.31331729125976565	0		4.765556640625	-0.46597958374023435	0		5.75974853515625	0.20925257873535155	0		-0.10701055145263672	5.9624833984375	0		
0.0031622850894927976	0.0011285690069198608	0		0.4364832458496094	-2.39260546875	0		-0.8766497802734375	0.2212845916748047	0		-0.578717041015625	-2.331446533203125	0		1.9328123779296875	-0.37171365356445313	0		3.52596337890625	-0.3064847412109375	0		4.77671923828125	-0.4661705017089844	0		5.75504443359375	0.2183039093017578	0		-0.10687538909912109	5.96243505859375	0		
-0.005525074005126953	0.010204126358032226	0		0.5195625	-2.3999013671875	0		-0.8764725952148438	0.22122654724121094	0		-0.607386474609375	-2.32107275390625	0		1.9231849365234375	-0.3586230163574219	0		3.538184326171875	-0.3037208251953125	0		4.77998583984375	-0.4602721862792969	0		5.7554755859375	0.23524606323242186	0		-0.10669995880126953	5.962376953125	0		
0.003530275106430054	0.0010060349702835083	0		0.4637951049804688	-2.39613232421875	0		-0.8843846435546875	0.21428533935546876	0		-0.5732830810546875	-2.326642333984375	0		1.9402977294921875	-0.36394830322265626	0		3.5624755859375	-0.2971580810546875	0		4.79115869140625	-0.4615191955566406	0		5.764412109375	0.21802700805664063	0		-0.10648666381835938	5.96231298828125	0		
-0.00917652702331543	0.007129337787628174	0		0.48003668212890627	-2.392445556640625	0		-0.884180908203125	0.21422198486328126	0		-0.6070204467773438	-2.32120068359375	0		1.9235736083984376	-0.35878009033203123	0		3.527798828125	-0.28873385620117187	0		4.791357421875	-0.4616263427734375	0		5.7597509765625	0.22698600769042968	0		-0.10722347259521485	5.96325830078125	0		
9.000909924507141E-4	-0.002094223976135254	0		0.4621341857910156	-2.39825634765625	0		-0.88396630859375	0.21415678405761718	0		-0.57088330078125	-2.324806884765625	0		1.943779541015625	-0.3591759643554687	0		3.543155517578125	-0.2790742492675781	0		4.808427734375	-0.47100875854492186	0		5.7599658203125	0.22684576416015625	0		-0.1400448760986328	5.95667822265625	0		
0.0041660799980163575	7.799590229988098E-4	0		0.46638079833984375	-2.39440380859375	0		-0.8737578125	0.21293931579589845	0		-0.6344784545898438	-2.30992333984375	0		1.9400860595703124	-0.3532251281738281	0		3.5774140625	-0.2767144775390625	0		4.808912109375	-0.4531600341796875	0		5.7830380859375	0.2163399200439453	0		-0.10371244812011719	5.95806103515625	0		
0.004396172046661377	6.932219862937927E-4	0		0.48873367309570315	-2.3838291015625	0		-0.8054719848632812	0.21584805297851561	0		-0.57021875	-2.305958740234375	0		1.9772313232421874	-0.3588974304199219	0		3.554822021484375	-0.2645169677734375	0		4.8211630859375	-0.4515059814453125	0		5.77354248046875	0.23430564880371094	0		0.02700571823120117	5.98302587890625	0		
0.001588942050933838	-0.0023550410270690918	0		0.49170278930664063	-2.398974609375	0		-0.883266845703125	0.21393916320800782	0		-0.6528186645507813	-2.291798583984375	0		1.9417662353515626	-0.338489013671875	0		3.5550546875	-0.2646746520996094	0		4.821392578125	-0.4516865234375	0		5.76966455078125	0.22616880798339845	0		-0.10497895050048828	5.9619140625	0		
0.0018315420150756836	-0.002456078052520752	0		0.5099720764160156	-2.39435595703125	0		-0.8141029663085938	0.2078197021484375	0		-0.57970361328125	-2.297982666015625	0		1.98098291015625	-0.3402130737304688	0		3.58019921875	-0.2712191162109375	0		4.82162646484375	-0.4518807373046875	0		5.792029296875	0.23362498474121093	0		-0.10462101745605469	5.96181494140625	0		
-0.007786746978759766	0.006584296226501465	0		0.4651282043457031	-2.39679833984375	0		-0.8778461303710937	0.20868980407714843	0		-0.6212752075195312	-2.28244970703125	0		1.9871153564453126	-0.34745211791992187	0		3.58452880859375	-0.26546240234375	0		4.83490625	-0.44928448486328126	0		5.792279296875	0.23339712524414064	0		-0.1383396759033203	5.95622021484375	0		
0.002322232007980347	-0.002682400941848755	0		0.49634890747070315	-2.395392822265625	0		-0.87759619140625	0.20859133911132813	0		-0.6071254272460938	-2.28576416015625	0		1.9916390380859375	-0.3286744384765625	0		3.583904296875	-0.2566425476074219	0		4.846140625	-0.449671142578125	0		5.796634765625	0.2400945587158203	0		-0.13796644592285157	5.95610546875	0		
0.0056106457710266115	1.4559599757194518E-4	0		0.4695888671875	-2.392123046875	0		-0.8773480834960937	0.20848397827148438	0		-0.6226279907226563	-2.265638427734375	0		1.99187548828125	-0.32884396362304685	0		3.593111083984375	-0.25898208618164065	0		4.85149462890625	-0.4419788513183594	0		5.7969140625	0.24184231567382813	0		-0.1176865234375	5.94968115234375	0		
-0.007057719230651856	0.006204731941223144	0		0.5127886962890625	-2.391918701171875	0		-0.8022486572265625	0.19823440551757812	0		-0.5864700317382813	-2.26830517578125	0		2.031088623046875	-0.3306107177734375	0		3.60244970703125	-0.25233013916015623	0		4.85172509765625	-0.44221646118164065	0		5.792294921875	0.25065943908691407	0		0.029189062118530274	5.9823388671875	0		
0.003038434982299805	-0.0030928831100463868	0		0.4658910217285156	-2.39736474609375	0		-0.880927001953125	0.2042959747314453	0		-0.5862799682617188	-2.268441650390625	0		2.0313155517578125	-0.3307969665527344	0		3.59960302734375	-0.2575003967285156	0		4.8660390625	-0.4366688232421875	0		5.8015166015625	0.24926557922363282	0		-0.10279640960693359	5.96118896484375	0		
0.0032631149291992186	-0.003253251075744629	0		0.48619497680664064	-2.38983642578125	0		-0.875775146484375	0.19907510375976561	0		-0.663826416015625	-2.25041357421875	0		2.0405035400390625	-0.3331268310546875	0		3.599823486328125	-0.2577201232910156	0		4.8752099609375	-0.4400453491210938	0		5.81485009765625	0.2558119354248047	0		-0.101518798828125	5.958015625	0		
0.006521915912628174	-4.7355300188064574E-4	0		0.4453965454101563	-2.388396240234375	0		-0.8704987182617188	0.20283616638183594	0		-0.654507568359375	-2.241716552734375	0		2.057650146484375	-0.3375857238769531	0		3.6459375	-0.2646390380859375	0		4.8895068359375	-0.4344979248046875	0		5.8191728515625	0.2624981384277344	0		-0.1333427276611328	5.950328125	0		
0.006721292018890381	-6.631960272789002E-4	0		0.528487548828125	-2.394847900390625	0		-0.87029736328125	0.20265498352050781	0		-0.6522997436523438	-2.239930419921875	0		2.05110498046875	-0.32069097900390625	0		3.63228759765625	-0.2546527099609375	0		4.8879296875	-0.4197060852050781	0		5.832509765625	0.27105429077148435	0		0.032365036010742185	5.97863525390625	0		
-0.04912146759033203	-0.00201908802986145	0		0.4618001708984375	-2.385041015625	0		-0.8751752319335937	0.19853057861328124	0		-0.5900921020507812	-2.23807275390625	0		2.051284423828125	-0.3209071655273438	0		3.625301513671875	-0.2657698364257812	0		4.90600048828125	-0.4272094421386719	0		5.82858642578125	0.26387954711914063	0		-0.10075563049316406	5.95744921875	0		
0.0040181980133056645	-0.004043962001800537	0		0.5148775024414063	-2.391065673828125	0		-0.87501416015625	0.1983099365234375	0		-0.6598034057617187	-2.22923291015625	0		2.058186279296875	-0.33823410034179685	0		3.634430908203125	-0.2681299743652344	0		4.9061611328125	-0.42743423461914065	0		5.82312744140625	0.2887422180175781	0		0.017577981948852538	5.96743701171875	0		
0.0041607489585876465	-0.004280904769897461	0		0.47098828125	-2.39363330078125	0		-0.8748723754882812	0.19806980895996093	0		-0.5826767578125	-2.2316396484375	0		2.062390380859375	-0.3345246887207031	0		3.636376953125	-0.281382568359375	0		4.9152587890625	-0.43078948974609377	0		5.8329951171875	0.27037686157226565	0		-0.13357186889648437	5.95049169921875	0		
-0.005573300838470459	0.004617996215820312	0		0.500115966796875	-2.39532080078125	0		-0.8696854248046875	0.20173542785644533	0		-0.646312255859375	-2.21692724609375	0		2.06558154296875	-0.3308069152832031	0		3.64367333984375	-0.2707144775390625	0		4.91948095703125	-0.4250658569335938	0		5.8462412109375	0.277970703125	0		-0.09940073394775391	5.95572314453125	0		
-0.001409412980079651	0.007291993141174316	0		0.49242803955078124	-2.384460693359375	0		-0.869568603515625	0.2014611053466797	0		-0.57905615234375	-2.21021484375	0		2.087761962890625	-0.32738348388671873	0		3.662671875	-0.2792273864746094	0		4.92960302734375	-0.42542974853515625	0		5.8456298828125	0.29578121948242186	0		-0.09934540557861328	5.95545703125	0		
